<svg version="1.1" xmlns="http://www.w3.org/2000/svg" viewBox="0 0 1104.743923086673 357.60441307742144" width="2209.487846173346" height="715.2088261548429">
  <!-- svg-source:excalidraw -->
  
  <defs>
    <style>
      @font-face {
        font-family: "Virgil";
        src: url("https://excalidraw.com/Virgil.woff2");
      }
      @font-face {
        font-family: "Cascadia";
        src: url("https://excalidraw.com/Cascadia.woff2");
      }
    </style>
  </defs>
  <g stroke-linecap="round"><g transform="translate(52.01953125 10.97550682742147) rotate(0 0.05710202716289814 145.38282675366847)"><path d="M-1.08 0.05 C-0.69 48.44, 0.89 242.01, 1.19 290.26 M0.56 -0.98 C0.98 47.63, 0.91 243.17, 0.87 291.74" stroke="#000000" stroke-width="1" fill="none"></path></g></g><g stroke-linecap="round"><g transform="translate(21.37890625 282.68253807742144) rotate(0 219.01081770919268 -0.3554689373821134)"><path d="M-1.15 0.44 C71.85 0.43, 365.78 -1.13, 439.17 -1.15 M0.44 -0.38 C73.18 -0.18, 365.19 0.02, 438.19 -0.21" stroke="#000000" stroke-width="1" fill="none"></path></g></g><g stroke-linecap="round"><g transform="translate(317.71484375 301.65128807742144) rotate(0 -0.8129589113383986 -124.17690570019187)"><path d="M-0.78 -0.67 C-0.85 -41.87, -0.94 -206.52, -0.76 -247.68" stroke="#000000" stroke-width="1.5" fill="none" stroke-dasharray="8 9"></path></g></g><g stroke-linecap="round"><g transform="translate(39.03515625 65.39347557742147) rotate(0 160.8794180776924 -0.1920029606670255)"><path d="M0.64 -0.77 C54.17 -0.53, 267.87 0.09, 321.12 0.39" stroke="#000000" stroke-width="1.5" fill="none" stroke-dasharray="8 9"></path></g></g><g stroke-linecap="round"><g transform="translate(53.37109375 281.66691307742144) rotate(0 131.52626780141148 -107.78018833285199)"><path d="M-0.03 1.12 C43.83 -34.91, 218.48 -178.8, 262.16 -215.16 M-1.5 0.66 C42.84 -35.15, 220.21 -180.55, 264.56 -216.68" stroke="#d9480f" stroke-width="1" fill="none"></path></g></g><g stroke-linecap="round"><g transform="translate(19.671875 281.08488182742144) rotate(0 16.804030768182145 0.4482135259248139)"><path d="M0.68 -0.67 C6.5 -0.83, 28.53 -0.42, 34.03 -0.35 M-0.42 1.6 C5.39 1.54, 27.98 1.05, 33.57 0.93" stroke="#d9480f" stroke-width="1" fill="none"></path></g></g><g stroke-linecap="round"><g transform="translate(316.96484375 63.33292870242147) rotate(0 17.460211710520127 -0.14941069998965872)"><path d="M1.19 0.69 C6.75 0.95, 26.89 0.7, 32.28 0.71 M0.35 0.01 C6.39 -0.02, 29.12 -0.9, 34.57 -1.11" stroke="#d9480f" stroke-width="1" fill="none"></path></g></g><g transform="translate(52.06640625 311.47941307742144) rotate(0 7.5 12.5)"><text x="0" y="18" font-family="Virgil, Segoe UI Emoji" font-size="20px" fill="#000000" text-anchor="start" style="white-space: pre;" direction="ltr">0</text></g><g transform="translate(314.765625 316.71769432742144) rotate(0 3.5 12.5)"><text x="0" y="18" font-family="Virgil, Segoe UI Emoji" font-size="20px" fill="#000000" text-anchor="start" style="white-space: pre;" direction="ltr">1</text></g><g transform="translate(10 49.38175682742147) rotate(0 3.5 12.5)"><text x="0" y="18" font-family="Virgil, Segoe UI Emoji" font-size="20px" fill="#000000" text-anchor="start" style="white-space: pre;" direction="ltr">1</text></g><g stroke-linecap="round"><g transform="translate(584.01171875 16.86222557742147) rotate(0 -0.30398838590826927 145.10795082831754)"><path d="M-1.1 -0.03 C-1.14 48.59, -0.37 242.86, -0.12 291.31 M0.52 -1.09 C0.31 47.25, -1.02 240.81, -1.13 289.69" stroke="#000000" stroke-width="1" fill="none"></path></g></g><g stroke-linecap="round"><g transform="translate(553.37109375 288.56925682742144) rotate(0 219.34063656131735 -0.5218908407818503)"><path d="M-0.03 -0.12 C73.41 0.14, 366.92 0.33, 440.19 0.43 M-1.51 -1.23 C71.89 -1.24, 366.33 -1.41, 439.74 -1.47" stroke="#000000" stroke-width="1" fill="none"></path></g></g><g stroke-linecap="round"><g transform="translate(849.70703125 307.53800682742144) rotate(0 0.15429226420815212 -123.35811440609399)"><path d="M-0.12 0.95 C0.14 -40.32, 0.33 -206.08, 0.43 -247.67" stroke="#000000" stroke-width="1.5" fill="none" stroke-dasharray="8 9"></path></g></g><g stroke-linecap="round"><g transform="translate(571.02734375 71.28019432742147) rotate(0 161.24735434390612 0.5099353808015792)"><path d="M0.95 0.43 C54.55 0.53, 268.26 0.71, 321.54 0.49" stroke="#000000" stroke-width="1.5" fill="none" stroke-dasharray="8 9"></path></g></g><g transform="translate(584.05859375 317.36613182742144) rotate(0 7.5 12.5)"><text x="0" y="18" font-family="Virgil, Segoe UI Emoji" font-size="20px" fill="#000000" text-anchor="start" style="white-space: pre;" direction="ltr">0</text></g><g transform="translate(846.7578125 322.60441307742144) rotate(0 3.5 12.5)"><text x="0" y="18" font-family="Virgil, Segoe UI Emoji" font-size="20px" fill="#000000" text-anchor="start" style="white-space: pre;" direction="ltr">1</text></g><g transform="translate(541.9921875 55.26847557742147) rotate(0 3.5 12.5)"><text x="0" y="18" font-family="Virgil, Segoe UI Emoji" font-size="20px" fill="#000000" text-anchor="start" style="white-space: pre;" direction="ltr">1</text></g><g stroke-linecap="round"><g transform="translate(583.5078125 181.60441307742147) rotate(0 133.85631592495366 -0.06547093642876689)"><path d="M0.65 -0.75 C44.89 -0.74, 221.66 0.31, 266.09 0.34 M-0.47 1.47 C44.06 1.08, 223.7 -1.44, 268.19 -1.6" stroke="#5c940d" stroke-width="1" fill="none"></path></g></g><g stroke-linecap="round"><g transform="translate(851.421875 73.29191307742147) rotate(0 89.62375739900381 -0.04460200912578216)"><path d="M0.42 0.87 C30.61 0.99, 150.24 1.04, 180.06 0.7 M-0.81 0.29 C29.4 0.06, 149.77 -0.93, 179.71 -1.05" stroke="#5c940d" stroke-width="1" fill="none"></path></g></g><g stroke-linecap="round"><g transform="translate(1029.76953125 72.47550682742147) rotate(0 33.00543048586701 0.22258377335964497)"><path d="M1.04 1 C11.83 0.77, 54.45 -0.23, 64.97 -0.56" stroke="#5c940d" stroke-width="1.5" fill="none" stroke-dasharray="8 9"></path></g></g><g transform="translate(531.8671875 173.41300682742147) rotate(0 15.5 12.5)"><text x="0" y="18" font-family="Virgil, Segoe UI Emoji" font-size="20px" fill="#000000" text-anchor="start" style="white-space: pre;" direction="ltr">1/2</text></g><g stroke-linecap="round"><g transform="translate(512.2300040218979 286.40042911153284) rotate(0 35.48874129522591 -0.649797524698073)"><path d="M0.15 0.39 C11.93 -0.04, 59.03 -1.35, 70.83 -1.69" stroke="#5c940d" stroke-width="1.5" fill="none" stroke-dasharray="8 9"></path></g></g><g stroke-linecap="round" transform="translate(576.30078125 278.90128807742144) rotate(0 7.23046875 7.947265625)"><path d="M10.29 0.64 C11.47 1.22, 12.74 2.96, 13.31 4.48 C13.89 6, 14.23 8.07, 13.76 9.75 C13.3 11.43, 11.66 13.57, 10.51 14.56 C9.36 15.56, 8.45 15.8, 6.85 15.72 C5.25 15.64, 1.94 15.33, 0.91 14.08 C-0.11 12.83, 0.48 10.18, 0.71 8.21 C0.94 6.23, 1.51 3.57, 2.29 2.23 C3.06 0.89, 3.9 0.32, 5.37 0.17 C6.83 0.03, 10.2 1.25, 11.09 1.36 C11.98 1.47, 10.68 0.62, 10.71 0.83 M7.22 -1.35 C8.79 -1.37, 10.85 1.97, 11.81 3.38 C12.77 4.79, 12.68 5.61, 12.97 7.08 C13.27 8.56, 14.37 10.59, 13.59 12.22 C12.81 13.84, 10.01 16.47, 8.3 16.85 C6.59 17.23, 4.5 15.15, 3.34 14.49 C2.17 13.83, 2 14.36, 1.31 12.9 C0.63 11.43, -1.1 7.57, -0.78 5.69 C-0.46 3.82, 1.98 2.4, 3.24 1.65 C4.5 0.9, 5.97 1.55, 6.77 1.18 C7.57 0.81, 7.79 -0.43, 8.03 -0.55" stroke="#5c940d" stroke-width="1" fill="none"></path></g><g stroke-linecap="round" transform="translate(841.3828125 174.42667870242147) rotate(0 7.23046875 7.947265625)"><path d="M8.07 0.96 C9.46 1.04, 10.96 1.93, 11.97 2.96 C12.97 4, 13.78 5.54, 14.11 7.17 C14.44 8.79, 14.85 11.24, 13.95 12.72 C13.05 14.2, 10.51 15.6, 8.71 16.06 C6.9 16.52, 4.63 16.12, 3.14 15.46 C1.64 14.8, 0.3 13.79, -0.25 12.1 C-0.81 10.41, -0.85 6.97, -0.19 5.32 C0.46 3.66, 2.11 3.1, 3.68 2.16 C5.25 1.22, 8.5 0.05, 9.22 -0.32 C9.94 -0.69, 8.11 -0.43, 8.01 -0.07 M5.35 -0.78 C6.66 -1.71, 8.4 -0.96, 9.91 -0.26 C11.41 0.44, 13.86 1.58, 14.38 3.41 C14.89 5.24, 13.24 9.1, 13.01 10.72 C12.78 12.34, 13.8 12.35, 12.98 13.12 C12.17 13.88, 10.05 15.18, 8.13 15.33 C6.21 15.48, 3.03 14.87, 1.46 14.02 C-0.1 13.18, -1.11 11.81, -1.24 10.25 C-1.38 8.69, -0.53 6.44, 0.63 4.65 C1.79 2.86, 4.98 0.43, 5.72 -0.49 C6.45 -1.42, 5.05 -1.09, 5.07 -0.9" stroke="#5c940d" stroke-width="1" fill="none"></path></g><g stroke-linecap="round" transform="translate(840.09375 66.54777245242147) rotate(0 7.23046875 7.947265625)"><path d="M8.39 -0.53 C9.63 -0.25, 11.06 1.56, 12.13 3.09 C13.19 4.61, 14.67 6.74, 14.79 8.62 C14.91 10.5, 13.86 13.29, 12.83 14.36 C11.79 15.44, 10.18 15.11, 8.59 15.08 C7.01 15.05, 4.66 14.98, 3.32 14.18 C1.98 13.39, 1.03 11.99, 0.55 10.33 C0.08 8.67, -0.05 5.99, 0.48 4.25 C1.02 2.5, 2.3 0.52, 3.75 -0.15 C5.19 -0.81, 8.12 0.25, 9.15 0.25 C10.18 0.24, 9.85 -0.18, 9.92 -0.18 M8.76 -0.56 C9.75 -0.07, 10.9 3.43, 11.91 5.09 C12.92 6.76, 14.86 8.2, 14.85 9.44 C14.83 10.67, 12.88 11.4, 11.82 12.51 C10.76 13.62, 9.86 15.71, 8.47 16.12 C7.09 16.54, 4.7 16.04, 3.5 15 C2.29 13.96, 1.52 11.84, 1.26 9.87 C1 7.9, 1.21 4.54, 1.92 3.18 C2.62 1.82, 4.29 2.33, 5.49 1.71 C6.69 1.1, 8.61 -0.46, 9.13 -0.5 C9.66 -0.54, 8.78 1.3, 8.63 1.48" stroke="none" stroke-width="0" fill="#82c91e"></path><path d="M6.98 0.55 C8.42 0.16, 10.36 0.7, 11.47 1.5 C12.59 2.31, 13.11 3.72, 13.67 5.39 C14.23 7.06, 15.34 10.03, 14.85 11.52 C14.36 13, 12.06 13.63, 10.73 14.32 C9.4 15, 8.27 15.73, 6.88 15.64 C5.5 15.54, 3.51 14.92, 2.42 13.75 C1.33 12.57, 0.58 10.33, 0.35 8.61 C0.12 6.89, 0.1 4.78, 1.05 3.41 C2 2.04, 4.96 1.05, 6.07 0.38 C7.18 -0.28, 7.63 -0.8, 7.72 -0.59 M7.24 1.41 C9.06 1.24, 11.33 1.53, 12.75 2.23 C14.17 2.93, 15.65 3.9, 15.77 5.61 C15.88 7.32, 14.34 11.11, 13.43 12.51 C12.53 13.92, 11.99 13.51, 10.33 14.05 C8.68 14.59, 5.02 16.1, 3.5 15.75 C1.97 15.41, 1.6 13.6, 1.17 11.98 C0.75 10.35, 0.72 7.85, 0.93 6 C1.14 4.16, 1.35 1.82, 2.43 0.9 C3.5 -0.02, 6.44 0.43, 7.37 0.48 C8.3 0.54, 8 1.39, 8.01 1.22" stroke="#5c940d" stroke-width="1" fill="none"></path></g><g stroke-linecap="round" transform="translate(576.29296875 175.39542870242147) rotate(0 7.23046875 7.947265625)"><path d="M8.96 -0.39 C10.25 -0.2, 11.36 1.33, 12.32 2.75 C13.27 4.17, 14.53 6.38, 14.69 8.13 C14.85 9.88, 14.29 11.96, 13.27 13.28 C12.25 14.59, 10.25 15.9, 8.55 16.03 C6.85 16.15, 4.4 14.9, 3.09 14.04 C1.78 13.18, 1.13 12.17, 0.68 10.85 C0.22 9.54, -0.16 7.58, 0.37 6.13 C0.9 4.68, 2.33 3.3, 3.86 2.18 C5.39 1.06, 8.58 -0.21, 9.56 -0.59 C10.54 -0.97, 9.71 -0.53, 9.72 -0.11 M7.51 -0.86 C8.69 -0.61, 10.17 0.79, 11.54 2.16 C12.91 3.53, 15.37 5.75, 15.72 7.36 C16.06 8.97, 14.76 10.45, 13.62 11.82 C12.48 13.19, 10.32 14.98, 8.88 15.6 C7.43 16.22, 6.13 16.14, 4.94 15.53 C3.75 14.93, 2.61 13.86, 1.75 11.99 C0.9 10.11, -0.4 5.95, -0.19 4.31 C0.02 2.66, 1.53 3.04, 3.03 2.1 C4.54 1.16, 8 -1.12, 8.85 -1.34 C9.69 -1.56, 8.44 0.15, 8.11 0.76" stroke="none" stroke-width="0" fill="#82c91e"></path><path d="M5.75 -0.07 C7.28 -0.16, 10.1 0.88, 11.39 1.97 C12.69 3.07, 13.26 4.8, 13.51 6.48 C13.77 8.15, 13.33 10.48, 12.91 12.03 C12.49 13.57, 12.35 15.27, 11 15.76 C9.65 16.25, 6.59 15.37, 4.81 14.97 C3.02 14.56, 1.04 14.59, 0.29 13.33 C-0.45 12.08, 0.05 9.41, 0.34 7.42 C0.63 5.42, 0.63 2.57, 2.01 1.37 C3.4 0.16, 7.36 0.26, 8.63 0.2 C9.91 0.14, 9.68 0.86, 9.68 0.99 M10.91 0.2 C12.34 0.38, 11.92 1.91, 12.65 3.28 C13.38 4.65, 15.52 6.56, 15.28 8.42 C15.05 10.28, 12.63 13.08, 11.24 14.44 C9.84 15.81, 8.25 16.47, 6.91 16.61 C5.58 16.75, 4.17 16.31, 3.22 15.27 C2.26 14.24, 1.7 12.48, 1.16 10.41 C0.62 8.33, -0.86 4.68, -0.03 2.83 C0.8 0.99, 4.67 -0.38, 6.13 -0.67 C7.58 -0.96, 8.06 1.03, 8.72 1.1 C9.37 1.17, 9.83 -0.53, 10.05 -0.26" stroke="#5c940d" stroke-width="1" fill="none"></path></g></svg>