<?xml version="1.0" standalone="no"?><!DOCTYPE svg PUBLIC "-//W3C//DTD SVG 1.1//EN" "http://www.w3.org/Graphics/SVG/1.1/DTD/svg11.dtd"><svg xmlns="http://www.w3.org/2000/svg" viewBox="0 0 650 400" version="1.1"><clipPath id="box"><rect x="0" y="0" width="650" height="400" style="" /></clipPath><g clip-path="url(#box)"><rect x="0.00" y="0.00" width="650.00" height="400.00" style="fill:transparent; stroke:none;" /><path d="M325.00 0.00 L325.00 400.00 " style="fill:none;stroke:#000000;stroke-width:1;" /><path d="M318.50 404.80 L331.50 404.80 M318.50 363.84 L331.50 363.84 M318.50 322.88 L331.50 322.88 M318.50 281.92 L331.50 281.92 M318.50 240.96 L331.50 240.96 M318.50 200.00 L331.50 200.00 M318.50 159.04 L331.50 159.04 M318.50 118.08 L331.50 118.08 M318.50 77.12 L331.50 77.12 M318.50 36.16 L331.50 36.16 " style="fill:none;stroke:#000000;stroke-width:1;" /><path d="M0.00 200.00 L650.00 200.00 " style="fill:none;stroke:#000000;stroke-width:1;" /><path d="M-2.68 193.50 L-2.68 206.50 M38.28 193.50 L38.28 206.50 M79.24 193.50 L79.24 206.50 M120.20 193.50 L120.20 206.50 M161.16 193.50 L161.16 206.50 M202.12 193.50 L202.12 206.50 M243.08 193.50 L243.08 206.50 M284.04 193.50 L284.04 206.50 M325.00 193.50 L325.00 206.50 M365.96 193.50 L365.96 206.50 M406.92 193.50 L406.92 206.50 M447.88 193.50 L447.88 206.50 M488.84 193.50 L488.84 206.50 M529.80 193.50 L529.80 206.50 M570.76 193.50 L570.76 206.50 M611.72 193.50 L611.72 206.50 " style="fill:none;stroke:#000000;stroke-width:1;" /><text x="333.125" y="366.3400000000003" text-anchor="start" style="font:10px Droid Sans,Trebuchet MS,Arial,Helvetica,sans-serif;stroke:none;fill:#000000">-8</text><text x="333.125" y="325.3800000000002" text-anchor="start" style="font:10px Droid Sans,Trebuchet MS,Arial,Helvetica,sans-serif;stroke:none;fill:#000000">-6</text><text x="333.125" y="284.4200000000002" text-anchor="start" style="font:10px Droid Sans,Trebuchet MS,Arial,Helvetica,sans-serif;stroke:none;fill:#000000">-4</text><text x="333.125" y="243.46000000000006" text-anchor="start" style="font:10px Droid Sans,Trebuchet MS,Arial,Helvetica,sans-serif;stroke:none;fill:#000000">-2</text><text x="333.125" y="202.5" text-anchor="start" style="font:10px Droid Sans,Trebuchet MS,Arial,Helvetica,sans-serif;stroke:none;fill:#000000">0</text><text x="333.125" y="161.5399999999999" text-anchor="start" style="font:10px Droid Sans,Trebuchet MS,Arial,Helvetica,sans-serif;stroke:none;fill:#000000">2</text><text x="333.125" y="120.57999999999986" text-anchor="start" style="font:10px Droid Sans,Trebuchet MS,Arial,Helvetica,sans-serif;stroke:none;fill:#000000">4</text><text x="333.125" y="79.61999999999978" text-anchor="start" style="font:10px Droid Sans,Trebuchet MS,Arial,Helvetica,sans-serif;stroke:none;fill:#000000">6</text><text x="333.125" y="38.659999999999705" text-anchor="start" style="font:10px Droid Sans,Trebuchet MS,Arial,Helvetica,sans-serif;stroke:none;fill:#000000">8</text><text x="38.279999999999454" y="216.125" text-anchor="middle" style="font:10px Droid Sans,Trebuchet MS,Arial,Helvetica,sans-serif;stroke:none;fill:#000000">-14</text><text x="79.23999999999954" y="216.125" text-anchor="middle" style="font:10px Droid Sans,Trebuchet MS,Arial,Helvetica,sans-serif;stroke:none;fill:#000000">-12</text><text x="120.19999999999962" y="216.125" text-anchor="middle" style="font:10px Droid Sans,Trebuchet MS,Arial,Helvetica,sans-serif;stroke:none;fill:#000000">-10</text><text x="161.15999999999968" y="216.125" text-anchor="middle" style="font:10px Droid Sans,Trebuchet MS,Arial,Helvetica,sans-serif;stroke:none;fill:#000000">-8</text><text x="202.11999999999978" y="216.125" text-anchor="middle" style="font:10px Droid Sans,Trebuchet MS,Arial,Helvetica,sans-serif;stroke:none;fill:#000000">-6</text><text x="243.07999999999987" y="216.125" text-anchor="middle" style="font:10px Droid Sans,Trebuchet MS,Arial,Helvetica,sans-serif;stroke:none;fill:#000000">-4</text><text x="284.0399999999999" y="216.125" text-anchor="middle" style="font:10px Droid Sans,Trebuchet MS,Arial,Helvetica,sans-serif;stroke:none;fill:#000000">-2</text><text x="325" y="216.125" text-anchor="middle" style="font:10px Droid Sans,Trebuchet MS,Arial,Helvetica,sans-serif;stroke:none;fill:#000000">0</text><text x="365.96000000000015" y="216.125" text-anchor="middle" style="font:10px Droid Sans,Trebuchet MS,Arial,Helvetica,sans-serif;stroke:none;fill:#000000">2</text><text x="406.9200000000002" y="216.125" text-anchor="middle" style="font:10px Droid Sans,Trebuchet MS,Arial,Helvetica,sans-serif;stroke:none;fill:#000000">4</text><text x="447.8800000000003" y="216.125" text-anchor="middle" style="font:10px Droid Sans,Trebuchet MS,Arial,Helvetica,sans-serif;stroke:none;fill:#000000">6</text><text x="488.8400000000004" y="216.125" text-anchor="middle" style="font:10px Droid Sans,Trebuchet MS,Arial,Helvetica,sans-serif;stroke:none;fill:#000000">8</text><text x="529.8000000000004" y="216.125" text-anchor="middle" style="font:10px Droid Sans,Trebuchet MS,Arial,Helvetica,sans-serif;stroke:none;fill:#000000">10</text><text x="570.7600000000006" y="216.125" text-anchor="middle" style="font:10px Droid Sans,Trebuchet MS,Arial,Helvetica,sans-serif;stroke:none;fill:#000000">12</text><text x="611.7200000000006" y="216.125" text-anchor="middle" style="font:10px Droid Sans,Trebuchet MS,Arial,Helvetica,sans-serif;stroke:none;fill:#000000">14</text><path d="M261.00 -0.00 L261.00 0.01 L261.16 1.00 L261.32 2.00 L261.48 3.00 L261.64 4.00 L261.80 4.99 L261.97 5.99 L262.13 6.99 L262.29 7.99 L262.45 8.98 L262.62 9.98 L262.78 10.98 L262.95 11.98 L263.11 12.97 L263.28 13.97 L263.44 14.97 L263.61 15.97 L263.77 16.96 L263.94 17.96 L264.11 18.96 L264.28 19.96 L264.45 20.95 L264.61 21.95 L264.78 22.95 L264.95 23.94 L265.12 24.94 L265.29 25.94 L265.47 26.94 L265.64 27.93 L265.81 28.93 L265.98 29.93 L266.16 30.92 L266.33 31.92 L266.50 32.92 L266.68 33.91 L266.85 34.91 L267.03 35.91 L267.21 36.91 L267.38 37.90 L267.56 38.90 L267.74 39.90 L267.92 40.89 L268.10 41.89 L268.28 42.89 L268.46 43.88 L268.64 44.88 L268.82 45.88 L269.00 46.87 L269.18 47.87 L269.37 48.87 L269.55 49.86 L269.73 50.86 L269.92 51.86 L270.10 52.85 L270.29 53.85 L270.48 54.85 L270.66 55.84 L270.85 56.84 L271.04 57.84 L271.23 58.83 L271.42 59.83 L271.61 60.83 L271.80 61.82 L272.00 62.82 L272.19 63.82 L272.38 64.81 L272.58 65.81 L272.77 66.81 L272.97 67.80 L273.16 68.80 L273.36 69.79 L273.56 70.79 L273.76 71.79 L273.96 72.78 L274.16 73.78 L274.36 74.77 L274.56 75.77 L274.76 76.77 L274.97 77.76 L275.17 78.76 L275.38 79.75 L275.58 80.75 L275.79 81.75 L276.00 82.74 L276.20 83.74 L276.41 84.73 L276.62 85.73 L276.83 86.72 L277.05 87.72 L277.26 88.72 L277.47 89.71 L277.69 90.71 L277.91 91.70 L278.12 92.70 L278.34 93.69 L278.56 94.69 L278.78 95.68 L279.00 96.68 L279.22 97.67 L279.45 98.67 L279.67 99.66 L279.89 100.66 L280.12 101.65 L280.35 102.65 L280.58 103.64 L280.81 104.64 L281.04 105.63 L281.27 106.63 L281.50 107.62 L281.74 108.62 L281.98 109.61 L282.21 110.61 L282.45 111.60 L282.69 112.60 L282.93 113.59 L283.18 114.58 L283.42 115.58 L283.66 116.57 L283.91 117.57 L284.16 118.56 L284.41 119.55 L284.66 120.55 L284.91 121.54 L285.17 122.54 L285.43 123.53 L285.68 124.52 L285.94 125.52 L286.20 126.51 L286.47 127.50 L286.73 128.50 L287.00 129.49 L287.27 130.48 L287.54 131.48 L287.81 132.47 L288.08 133.46 L288.36 134.45 L288.64 135.45 L288.92 136.44 L289.20 137.43 L289.49 138.42 L289.78 139.41 L290.06 140.41 L290.36 141.40 L290.65 142.39 L290.95 143.38 L291.25 144.37 L291.55 145.36 L291.85 146.35 L292.16 147.35 L292.47 148.34 L292.79 149.33 L293.10 150.32 L293.42 151.31 L293.74 152.30 L294.07 153.29 L294.40 154.28 L294.73 155.27 L295.07 156.25 L295.41 157.24 L295.75 158.23 L296.10 159.22 L296.45 160.21 L296.81 161.20 L297.17 162.18 L297.54 163.17 L297.91 164.16 L298.28 165.14 L298.66 166.13 L299.05 167.11 L299.44 168.10 L299.84 169.08 L300.24 170.07 L300.65 171.05 L301.07 172.03 L301.49 173.02 L301.92 174.00 L302.36 174.98 L302.81 175.96 L303.27 176.94 L303.74 177.92 L304.21 178.90 L304.70 179.88 L305.20 180.85 L305.71 181.83 L306.23 182.80 L306.77 183.77 L307.32 184.74 L307.89 185.71 L308.48 186.68 L309.09 187.64 L309.72 188.60 L310.38 189.56 L311.06 190.52 L311.78 191.47 L312.54 192.41 L313.33 193.35 L314.18 194.29 L315.09 195.21 L316.08 196.12 L317.17 197.01 L318.39 197.87 L319.81 198.68 L321.55 199.42 L323.55 199.90 L325.55 199.99 L327.55 199.68 L329.55 198.99 L331.55 197.91 L333.39 196.56 L334.76 195.35 L335.89 194.21 L336.88 193.11 L337.78 192.02 L338.61 190.95 L339.39 189.89 L340.12 188.84 L340.81 187.79 L341.48 186.75 L342.11 185.71 L342.72 184.67 L343.31 183.63 L343.88 182.60 L344.43 181.57 L344.96 180.54 L345.48 179.52 L345.99 178.49 L346.48 177.47 L346.96 176.44 L347.44 175.42 L347.90 174.40 L348.35 173.38 L348.79 172.36 L349.23 171.34 L349.65 170.33 L350.07 169.31 L350.48 168.29 L350.89 167.27 L351.29 166.26 L351.68 165.24 L352.07 164.23 L352.45 163.22 L352.82 162.20 L353.19 161.19 L353.56 160.17 L353.92 159.16 L354.28 158.15 L354.63 157.14 L354.98 156.13 L355.32 155.11 L355.66 154.10 L356.00 153.09 L356.33 152.08 L356.66 151.07 L356.98 150.06 L357.30 149.05 L357.62 148.04 L357.94 147.03 L358.25 146.02 L358.56 145.01 L358.87 144.00 L359.17 142.99 L359.47 141.98 L359.77 140.97 L360.06 139.97 L360.36 138.96 L360.65 137.95 L360.94 136.94 L361.22 135.93 L361.51 134.93 L361.79 133.92 L362.07 132.91 L362.34 131.90 L362.62 130.89 L362.89 129.89 L363.16 128.88 L363.43 127.87 L363.70 126.87 L363.97 125.86 L364.23 124.85 L364.49 123.85 L364.75 122.84 L365.01 121.83 L365.27 120.83 L365.52 119.82 L365.78 118.81 L366.03 117.81 L366.28 116.80 L366.53 115.80 L366.77 114.79 L367.02 113.78 L367.26 112.78 L367.51 111.77 L367.75 110.77 L367.99 109.76 L368.23 108.75 L368.47 107.75 L368.70 106.74 L368.94 105.74 L369.17 104.73 L369.40 103.73 L369.63 102.72 L369.86 101.72 L370.09 100.71 L370.32 99.71 L370.55 98.70 L370.77 97.70 L371.00 96.69 L371.22 95.69 L371.44 94.68 L371.66 93.68 L371.88 92.67 L372.10 91.67 L372.32 90.66 L372.54 89.66 L372.75 88.65 L372.97 87.65 L373.18 86.65 L373.39 85.64 L373.61 84.64 L373.82 83.63 L374.03 82.63 L374.24 81.62 L374.45 80.62 L374.65 79.62 L374.86 78.61 L375.07 77.61 L375.27 76.60 L375.48 75.60 L375.68 74.59 L375.88 73.59 L376.08 72.59 L376.28 71.58 L376.48 70.58 L376.68 69.57 L376.88 68.57 L377.08 67.57 L377.28 66.56 L377.47 65.56 L377.67 64.56 L377.86 63.55 L378.06 62.55 L378.25 61.54 L378.44 60.54 L378.63 59.54 L378.83 58.53 L379.02 57.53 L379.21 56.53 L379.40 55.52 L379.58 54.52 L379.77 53.52 L379.96 52.51 L380.15 51.51 L380.33 50.51 L380.52 49.50 L380.70 48.50 L380.89 47.50 L381.07 46.49 L381.25 45.49 L381.44 44.49 L381.62 43.48 L381.80 42.48 L381.98 41.48 L382.16 40.47 L382.34 39.47 L382.52 38.47 L382.70 37.46 L382.87 36.46 L383.05 35.46 L383.23 34.45 L383.40 33.45 L383.58 32.45 L383.75 31.45 L383.93 30.44 L384.10 29.44 L384.28 28.44 L384.45 27.43 L384.62 26.43 L384.79 25.43 L384.96 24.43 L385.14 23.42 L385.31 22.42 L385.48 21.42 L385.65 20.41 L385.81 19.41 L385.98 18.41 L386.15 17.41 L386.32 16.40 L386.49 15.40 L386.65 14.40 L386.82 13.39 L386.99 12.39 L387.15 11.39 L387.32 10.39 L387.48 9.38 L387.64 8.38 L387.81 7.38 L387.97 6.38 L388.13 5.37 L388.30 4.37 L388.46 3.37 L388.62 2.37 L388.78 1.36 L388.94 0.36 L389.10 -0.64 " style="fill:none;stroke:#000000;stroke-width:1;" /><path d="M-10.00 200.00 L-0.25 118.08 L0.75 118.08 L2.75 118.08 L4.75 118.08 L6.75 118.08 L8.75 118.08 L10.75 118.08 L12.75 118.08 L14.75 118.08 L16.75 118.08 L18.75 118.08 L20.75 118.08 L22.75 118.08 L24.75 118.08 L26.75 118.08 L28.75 118.08 L30.75 118.08 L32.75 118.08 L34.75 118.08 L36.75 118.08 L38.75 118.08 L40.75 118.08 L42.75 118.08 L44.75 118.08 L46.75 118.08 L48.75 118.08 L50.75 118.08 L52.75 118.08 L54.75 118.08 L56.75 118.08 L58.75 118.08 L60.75 118.08 L62.75 118.08 L64.75 118.08 L66.75 118.08 L68.75 118.08 L70.75 118.08 L72.75 118.08 L74.75 118.08 L76.75 118.08 L78.75 118.08 L80.75 118.08 L82.75 118.08 L84.75 118.08 L86.75 118.08 L88.75 118.08 L90.75 118.08 L92.75 118.08 L94.75 118.08 L96.75 118.08 L98.75 118.08 L100.75 118.08 L102.75 118.08 L104.75 118.08 L106.75 118.08 L108.75 118.08 L110.75 118.08 L112.75 118.08 L114.75 118.08 L116.75 118.08 L118.75 118.08 L120.75 118.08 L122.75 118.08 L124.75 118.08 L126.75 118.08 L128.75 118.08 L130.75 118.08 L132.75 118.08 L134.75 118.08 L136.75 118.08 L138.75 118.08 L140.75 118.08 L142.75 118.08 L144.75 118.08 L146.75 118.08 L148.75 118.08 L150.75 118.08 L152.75 118.08 L154.75 118.08 L156.75 118.08 L158.75 118.08 L160.75 118.08 L162.75 118.08 L164.75 118.08 L166.75 118.08 L168.75 118.08 L170.75 118.08 L172.75 118.08 L174.75 118.08 L176.75 118.08 L178.75 118.08 L180.75 118.08 L182.75 118.08 L184.75 118.08 L186.75 118.08 L188.75 118.08 L190.75 118.08 L192.75 118.08 L194.75 118.08 L196.75 118.08 L198.75 118.08 L200.75 118.08 L202.75 118.08 L204.75 118.08 L206.75 118.08 L208.75 118.08 L210.75 118.08 L212.75 118.08 L214.75 118.08 L216.75 118.08 L218.75 118.08 L220.75 118.08 L222.75 118.08 L224.75 118.08 L226.75 118.08 L228.75 118.08 L230.75 118.08 L232.75 118.08 L234.75 118.08 L236.75 118.08 L238.75 118.08 L240.75 118.08 L242.75 118.08 L244.75 118.08 L246.75 118.08 L248.75 118.08 L250.75 118.08 L252.75 118.08 L254.75 118.08 L256.75 118.08 L258.75 118.08 L260.75 118.08 L262.75 118.08 L264.75 118.08 L266.75 118.08 L268.75 118.08 L270.75 118.08 L272.75 118.08 L274.75 118.08 L276.75 118.08 L278.75 118.08 L280.75 118.08 L282.75 118.08 L284.75 118.08 L286.75 118.08 L288.75 118.08 L290.75 118.08 L292.75 118.08 L294.75 118.08 L296.75 118.08 L298.75 118.08 L300.75 118.08 L302.75 118.08 L304.75 118.08 L306.75 118.08 L308.75 118.08 L310.75 118.08 L312.75 118.08 L314.75 118.08 L316.75 118.08 L318.75 118.08 L320.75 118.08 L322.75 118.08 L324.75 118.08 L326.75 118.08 L328.75 118.08 L330.75 118.08 L332.75 118.08 L334.75 118.08 L336.75 118.08 L338.75 118.08 L340.75 118.08 L342.75 118.08 L344.75 118.08 L346.75 118.08 L348.75 118.08 L350.75 118.08 L352.75 118.08 L354.75 118.08 L356.75 118.08 L358.75 118.08 L360.75 118.08 L362.75 118.08 L364.75 118.08 L366.75 118.08 L368.75 118.08 L370.75 118.08 L372.75 118.08 L374.75 118.08 L376.75 118.08 L378.75 118.08 L380.75 118.08 L382.75 118.08 L384.75 118.08 L386.75 118.08 L388.75 118.08 L390.75 118.08 L392.75 118.08 L394.75 118.08 L396.75 118.08 L398.75 118.08 L400.75 118.08 L402.75 118.08 L404.75 118.08 L406.75 118.08 L408.75 118.08 L410.75 118.08 L412.75 118.08 L414.75 118.08 L416.75 118.08 L418.75 118.08 L420.75 118.08 L422.75 118.08 L424.75 118.08 L426.75 118.08 L428.75 118.08 L430.75 118.08 L432.75 118.08 L434.75 118.08 L436.75 118.08 L438.75 118.08 L440.75 118.08 L442.75 118.08 L444.75 118.08 L446.75 118.08 L448.75 118.08 L450.75 118.08 L452.75 118.08 L454.75 118.08 L456.75 118.08 L458.75 118.08 L460.75 118.08 L462.75 118.08 L464.75 118.08 L466.75 118.08 L468.75 118.08 L470.75 118.08 L472.75 118.08 L474.75 118.08 L476.75 118.08 L478.75 118.08 L480.75 118.08 L482.75 118.08 L484.75 118.08 L486.75 118.08 L488.75 118.08 L490.75 118.08 L492.75 118.08 L494.75 118.08 L496.75 118.08 L498.75 118.08 L500.75 118.08 L502.75 118.08 L504.75 118.08 L506.75 118.08 L508.75 118.08 L510.75 118.08 L512.75 118.08 L514.75 118.08 L516.75 118.08 L518.75 118.08 L520.75 118.08 L522.75 118.08 L524.75 118.08 L526.75 118.08 L528.75 118.08 L530.75 118.08 L532.75 118.08 L534.75 118.08 L536.75 118.08 L538.75 118.08 L540.75 118.08 L542.75 118.08 L544.75 118.08 L546.75 118.08 L548.75 118.08 L550.75 118.08 L552.75 118.08 L554.75 118.08 L556.75 118.08 L558.75 118.08 L560.75 118.08 L562.75 118.08 L564.75 118.08 L566.75 118.08 L568.75 118.08 L570.75 118.08 L572.75 118.08 L574.75 118.08 L576.75 118.08 L578.75 118.08 L580.75 118.08 L582.75 118.08 L584.75 118.08 L586.75 118.08 L588.75 118.08 L590.75 118.08 L592.75 118.08 L594.75 118.08 L596.75 118.08 L598.75 118.08 L600.75 118.08 L602.75 118.08 L604.75 118.08 L606.75 118.08 L608.75 118.08 L610.75 118.08 L612.75 118.08 L614.75 118.08 L616.75 118.08 L618.75 118.08 L620.75 118.08 L622.75 118.08 L624.75 118.08 L626.75 118.08 L628.75 118.08 L630.75 118.08 L632.75 118.08 L634.75 118.08 L636.75 118.08 L638.75 118.08 L640.75 118.08 L642.75 118.08 L644.75 118.08 L646.75 118.08 L648.75 118.08 " style="fill:none;stroke:#000000;stroke-width:1;" /><path d="M-10.00 200.00 L-0.25 240.96 L0.75 240.96 L2.75 240.96 L4.75 240.96 L6.75 240.96 L8.75 240.96 L10.75 240.96 L12.75 240.96 L14.75 240.96 L16.75 240.96 L18.75 240.96 L20.75 240.96 L22.75 240.96 L24.75 240.96 L26.75 240.96 L28.75 240.96 L30.75 240.96 L32.75 240.96 L34.75 240.96 L36.75 240.96 L38.75 240.96 L40.75 240.96 L42.75 240.96 L44.75 240.96 L46.75 240.96 L48.75 240.96 L50.75 240.96 L52.75 240.96 L54.75 240.96 L56.75 240.96 L58.75 240.96 L60.75 240.96 L62.75 240.96 L64.75 240.96 L66.75 240.96 L68.75 240.96 L70.75 240.96 L72.75 240.96 L74.75 240.96 L76.75 240.96 L78.75 240.96 L80.75 240.96 L82.75 240.96 L84.75 240.96 L86.75 240.96 L88.75 240.96 L90.75 240.96 L92.75 240.96 L94.75 240.96 L96.75 240.96 L98.75 240.96 L100.75 240.96 L102.75 240.96 L104.75 240.96 L106.75 240.96 L108.75 240.96 L110.75 240.96 L112.75 240.96 L114.75 240.96 L116.75 240.96 L118.75 240.96 L120.75 240.96 L122.75 240.96 L124.75 240.96 L126.75 240.96 L128.75 240.96 L130.75 240.96 L132.75 240.96 L134.75 240.96 L136.75 240.96 L138.75 240.96 L140.75 240.96 L142.75 240.96 L144.75 240.96 L146.75 240.96 L148.75 240.96 L150.75 240.96 L152.75 240.96 L154.75 240.96 L156.75 240.96 L158.75 240.96 L160.75 240.96 L162.75 240.96 L164.75 240.96 L166.75 240.96 L168.75 240.96 L170.75 240.96 L172.75 240.96 L174.75 240.96 L176.75 240.96 L178.75 240.96 L180.75 240.96 L182.75 240.96 L184.75 240.96 L186.75 240.96 L188.75 240.96 L190.75 240.96 L192.75 240.96 L194.75 240.96 L196.75 240.96 L198.75 240.96 L200.75 240.96 L202.75 240.96 L204.75 240.96 L206.75 240.96 L208.75 240.96 L210.75 240.96 L212.75 240.96 L214.75 240.96 L216.75 240.96 L218.75 240.96 L220.75 240.96 L222.75 240.96 L224.75 240.96 L226.75 240.96 L228.75 240.96 L230.75 240.96 L232.75 240.96 L234.75 240.96 L236.75 240.96 L238.75 240.96 L240.75 240.96 L242.75 240.96 L244.75 240.96 L246.75 240.96 L248.75 240.96 L250.75 240.96 L252.75 240.96 L254.75 240.96 L256.75 240.96 L258.75 240.96 L260.75 240.96 L262.75 240.96 L264.75 240.96 L266.75 240.96 L268.75 240.96 L270.75 240.96 L272.75 240.96 L274.75 240.96 L276.75 240.96 L278.75 240.96 L280.75 240.96 L282.75 240.96 L284.75 240.96 L286.75 240.96 L288.75 240.96 L290.75 240.96 L292.75 240.96 L294.75 240.96 L296.75 240.96 L298.75 240.96 L300.75 240.96 L302.75 240.96 L304.75 240.96 L306.75 240.96 L308.75 240.96 L310.75 240.96 L312.75 240.96 L314.75 240.96 L316.75 240.96 L318.75 240.96 L320.75 240.96 L322.75 240.96 L324.75 240.96 L326.75 240.96 L328.75 240.96 L330.75 240.96 L332.75 240.96 L334.75 240.96 L336.75 240.96 L338.75 240.96 L340.75 240.96 L342.75 240.96 L344.75 240.96 L346.75 240.96 L348.75 240.96 L350.75 240.96 L352.75 240.96 L354.75 240.96 L356.75 240.96 L358.75 240.96 L360.75 240.96 L362.75 240.96 L364.75 240.96 L366.75 240.96 L368.75 240.96 L370.75 240.96 L372.75 240.96 L374.75 240.96 L376.75 240.96 L378.75 240.96 L380.75 240.96 L382.75 240.96 L384.75 240.96 L386.75 240.96 L388.75 240.96 L390.75 240.96 L392.75 240.96 L394.75 240.96 L396.75 240.96 L398.75 240.96 L400.75 240.96 L402.75 240.96 L404.75 240.96 L406.75 240.96 L408.75 240.96 L410.75 240.96 L412.75 240.96 L414.75 240.96 L416.75 240.96 L418.75 240.96 L420.75 240.96 L422.75 240.96 L424.75 240.96 L426.75 240.96 L428.75 240.96 L430.75 240.96 L432.75 240.96 L434.75 240.96 L436.75 240.96 L438.75 240.96 L440.75 240.96 L442.75 240.96 L444.75 240.96 L446.75 240.96 L448.75 240.96 L450.75 240.96 L452.75 240.96 L454.75 240.96 L456.75 240.96 L458.75 240.96 L460.75 240.96 L462.75 240.96 L464.75 240.96 L466.75 240.96 L468.75 240.96 L470.75 240.96 L472.75 240.96 L474.75 240.96 L476.75 240.96 L478.75 240.96 L480.75 240.96 L482.75 240.96 L484.75 240.96 L486.75 240.96 L488.75 240.96 L490.75 240.96 L492.75 240.96 L494.75 240.96 L496.75 240.96 L498.75 240.96 L500.75 240.96 L502.75 240.96 L504.75 240.96 L506.75 240.96 L508.75 240.96 L510.75 240.96 L512.75 240.96 L514.75 240.96 L516.75 240.96 L518.75 240.96 L520.75 240.96 L522.75 240.96 L524.75 240.96 L526.75 240.96 L528.75 240.96 L530.75 240.96 L532.75 240.96 L534.75 240.96 L536.75 240.96 L538.75 240.96 L540.75 240.96 L542.75 240.96 L544.75 240.96 L546.75 240.96 L548.75 240.96 L550.75 240.96 L552.75 240.96 L554.75 240.96 L556.75 240.96 L558.75 240.96 L560.75 240.96 L562.75 240.96 L564.75 240.96 L566.75 240.96 L568.75 240.96 L570.75 240.96 L572.75 240.96 L574.75 240.96 L576.75 240.96 L578.75 240.96 L580.75 240.96 L582.75 240.96 L584.75 240.96 L586.75 240.96 L588.75 240.96 L590.75 240.96 L592.75 240.96 L594.75 240.96 L596.75 240.96 L598.75 240.96 L600.75 240.96 L602.75 240.96 L604.75 240.96 L606.75 240.96 L608.75 240.96 L610.75 240.96 L612.75 240.96 L614.75 240.96 L616.75 240.96 L618.75 240.96 L620.75 240.96 L622.75 240.96 L624.75 240.96 L626.75 240.96 L628.75 240.96 L630.75 240.96 L632.75 240.96 L634.75 240.96 L636.75 240.96 L638.75 240.96 L640.75 240.96 L642.75 240.96 L644.75 240.96 L646.75 240.96 L648.75 240.96 " style="fill:none;stroke:#000000;stroke-width:1;" /></g></svg>
